<?xml version="1.0" encoding="utf-8"?>
<!-- Generator: Adobe Illustrator 25.2.3, SVG Export Plug-In . SVG Version: 6.00 Build 0)  -->
<svg version="1.1" id="Capa_1" xmlns="http://www.w3.org/2000/svg" xmlns:xlink="http://www.w3.org/1999/xlink" x="0px" y="0px"
	 viewBox="0 0 64 64" style="enable-background:new 0 0 64 64;" xml:space="preserve">
<style type="text/css">
	.st0{fill:#83CD29;}
</style>
<g transform="matrix(.217946 0 0 .217946 4.120542 14.085548)">
	<path class="st0" d="M127.7-64.6c-2.6,0-4.8,0.4-7,1.8L5.8,3.6c-4.4,2.6-7,7.5-7,12.3v132.9c0,4.8,2.6,9.7,7,11.9L121.1,227
		c4.4,2.6,9.7,2.6,13.6,0L250,160.6c4.4-2.6,7-7,7-11.9V15.9c0-4.8-2.6-9.7-7-12.3L134.7-62.9C132.5-63.7,130.3-64.6,127.7-64.6
		L127.7-64.6z"/>
</g>
</svg>
