<?xml version="1.0" encoding="utf-8"?>
<!-- Generator: Adobe Illustrator 25.2.3, SVG Export Plug-In . SVG Version: 6.00 Build 0)  -->
<svg version="1.1" id="Layer_1" xmlns="http://www.w3.org/2000/svg" xmlns:xlink="http://www.w3.org/1999/xlink" x="0px" y="0px"
	 viewBox="0 0 512 512" style="enable-background:new 0 0 512 512;" xml:space="preserve">
<style type="text/css">
	.st0{fill:#C7C1BD;}
</style>
<path class="st0" d="M405.3,85.3h-23.5C372.1,36.7,329,0,277.3,0h-42.7c-51.4,0-94.5,36.7-104.5,85.3h-23.5C47.8,85.3,0,133.1,0,192
	v213.3C0,464.2,47.8,512,106.7,512h298.7c58.9,0,106.7-47.8,106.7-106.7V192C512,133.1,464.2,85.3,405.3,85.3z M234.7,42.7h42.7
	c27.7,0,51.2,17.9,60.2,42.7H174.7c8.7-24.7,32.2-42.7,60.2-42.7H234.7z"/>
</svg>
