<?xml version="1.0" encoding="utf-8"?>
<!-- Generator: Adobe Illustrator 25.2.3, SVG Export Plug-In . SVG Version: 6.00 Build 0)  -->
<svg version="1.1" id="Layer_1" xmlns="http://www.w3.org/2000/svg" xmlns:xlink="http://www.w3.org/1999/xlink" x="0px" y="0px"
	 viewBox="0 0 512 512" style="enable-background:new 0 0 512 512;" xml:space="preserve">
<path d="M256,0C114.8,0,0,114.8,0,256s114.8,256,256,256s256-114.8,256-256S397.2,0,256,0z M126.9,150.6c1.5-4.3,5-7.5,9.4-8.5
	c2.3-0.6,57.2-13.5,119.7-13.5c63.7,0,117.5,13,119.8,13.5c4.3,1.1,7.8,4.2,9.3,8.4c0.1,0.3,0.8,2.2,1.7,5.4L367.1,177
	c-5.4,5.8-25.1,26.4-53.7,48.4c-21.6,16.7-46.1,31.4-57.4,37.9c-11.3-6.5-35.7-21.2-57.4-37.9c-28.6-22.1-48.4-42.7-53.8-48.5v0
	l-19.6-21C126.1,152.8,126.8,151,126.9,150.6z M385.1,361.4c-1.5,4.2-5,7.4-9.3,8.5c-2.3,0.6-56.2,13.5-119.8,13.5
	c-61.4,0-117.3-12.9-119.7-13.5c-4.4-1-8-4.2-9.5-8.5c-0.7-1.9-15.9-46.6-15.9-105.4c0-27,3.2-51.1,6.8-69.3l7.8,8.3
	c7.3,7.9,27.5,28.7,56.9,51.4c30.8,23.8,65.7,42.9,67.2,43.7c2,1.1,4.2,1.6,6.3,1.6c2.2,0,4.3-0.5,6.3-1.6
	c1.5-0.8,36.4-20,67.2-43.7c29.4-22.7,49.6-43.5,56.9-51.4h0l7.8-8.4c3.5,18.2,6.7,42.2,6.7,69.4C401,315.1,385.7,359.5,385.1,361.4
	z"/>
</svg>
