<?xml version="1.0" encoding="utf-8"?>
<!-- Generator: Adobe Illustrator 25.2.3, SVG Export Plug-In . SVG Version: 6.00 Build 0)  -->
<svg version="1.1" id="Capa_1" xmlns="http://www.w3.org/2000/svg" xmlns:xlink="http://www.w3.org/1999/xlink" x="0px" y="0px"
	 viewBox="0 0 800 800" style="enable-background:new 0 0 800 800;" xml:space="preserve">
<style type="text/css">
	.st0{fill:#D33833;}
	.st1{fill:#EF3D3A;}
	.st2{fill:#231F20;}
	.st3{fill:#F0D6B7;}
	.st4{fill:#335061;}
	.st5{fill:#6D6B6D;}
	.st6{fill:#DCD9D8;}
	.st7{fill:#F7E4CD;}
	.st8{fill:#49728B;}
	.st9{fill:#FFFFFF;}
	.st10{stroke:#D33833;stroke-width:4.5592;stroke-miterlimit:7.6739;}
	.st11{fill:#81B0C4;}
	.st12{fill:#1D1919;}
</style>
<g>
	<path class="st0" d="M679.9,385.8c0,158.3-125.5,286.8-280.5,286.8S118.9,544.1,118.9,385.8S244.5,99,399.4,99
		S679.9,227.4,679.9,385.8"/>
	<path class="st1" d="M130.5,456.8c0,0-20.4-299,255.4-307.6l-19.2-32.1l-149.5,50.2l-42.8,49.1L137,287.8l-21.3,83.2l6.3,55.6"/>
	<path class="st2" d="M207.4,190.1c-49.1,50.4-79.6,119.9-79.6,196.8l0,0c0,76.9,30.5,146.3,79.6,196.8l0,0
		c49.3,50.4,116.9,81.4,192,81.4l0,0c75.1,0,142.7-31,192-81.4l0,0c49.1-50.4,79.6-119.9,79.6-196.8l0,0
		c0-76.9-30.5-146.3-79.6-196.8l0,0c-49.3-50.2-116.9-81.4-192-81.4l0,0C324.6,108.7,256.7,139.7,207.4,190.1L207.4,190.1
		L207.4,190.1z M194.9,595.7c-52.3-53.4-84.6-127.3-84.6-208.8l0,0c0-81.4,32.3-155.4,84.6-209l0,0c52.3-53.4,124.6-86.6,204.5-86.6
		l0,0c79.8,0,152.2,33.3,204.5,86.6l0,0c52.3,53.4,84.6,127.3,84.6,209l0,0c0,81.4-32.3,155.4-84.6,208.8l0,0
		c-52.3,53.6-124.6,86.6-204.5,86.6l0,0C319.6,682.3,247.2,649.3,194.9,595.7L194.9,595.7L194.9,595.7z"/>
	<path class="st3" d="M517.5,387.4l-42.8,6.3l-57.7,6.6l-37.3,0.9l-36.4-1.1l-27.8-8.6l-24.7-26.7l-19.2-54.5l-4.3-11.8l-25.6-8.6
		l-14.9-24.7l-10.6-35.3l11.8-31l27.8-9.7l22.4,10.6l10.6,23.5l12.9-2l4.3-5.4l-4.3-24.7l-1.1-31l6.3-42.8l-0.2-24.4l19.5-31.2
		l34.2-24.7L420,11.7l66.3,9.7L544,63l26.7,42.8l17.2,31l4.3,76.9l-12.9,66.3l-23.5,58.8l-22.2,31.4"/>
	<path class="st4" d="M481.3,572.2l-152.7,6.3v25.6l12.9,89.8l-6.3,7.5l-106.8-36.4L221,652l-10.6-120.8l-25.1-72.4l-5.4-17.2
		l85.5-58.8l26.7-10.6l23.5,29l20.4,18.1l23.5,7.5l10.6,3.2l12.9,55.6l9.7,11.8l24.7-8.6L400.1,522l92.7,43.9L481.3,572.2"/>
	<path class="st5" d="M228,199.4l27.8-9.7l22.4,10.6l10.6,23.5l12.9-2l3.2-12.9l-6.3-24.7l6.3-58.8l-5.4-32.1l19.2-22.4l41.6-33
		l-11.8-16.1l-58.8,29L265.1,70l-13.8,29.9l-21.3,29l-6.3,34.2L228,199.4"/>
	<path class="st6" d="M271.9,99c0,0,16.1-39.6,80.1-58.8s3.2-13.8,3.2-13.8L285.7,53L259,79.7L247.2,101L271.9,99"/>
	<path class="st6" d="M239.7,191.9c0,0-22.4-74.9,63.1-85.5l-3.2-12.9l-58.8,13.8L223.7,163l4.3,36.4L239.7,191.9"/>
	<path class="st7" d="M273.9,291.2l14-13.6c0,0,6.3,0.7,7.5,8.1s4.3,74.9,50.2,111.1c4.3,3.4-34.2-5.4-34.2-5.4l-34.2-53.4"/>
	<path class="st7" d="M470.5,270.9c0,0,2.5-32.3,11.3-29.9c8.8,2.5,8.8,11.3,8.8,11.3S469.3,265.9,470.5,270.9"/>
	<path class="st7" d="M559.1,152.3c0,0-17.6,3.6-19.2,19.2c-1.6,15.6,19.2,3.2,22.4,2"/>
	<path class="st7" d="M430,153.5c0,0-23.5,3.2-23.5,18.1c0,14.9,26.7,13.8,34.2,7.5"/>
	<path class="st7" d="M284.7,222.9c0,0-40.5-24.7-44.8-1.1s-13.8,40.5,6.3,65.1l-13.8-4.3l-12.9-33l-4.3-32.1l24.7-25.6l27.8,2
		l16.1,12.9L284.7,222.9"/>
	<path class="st7" d="M304,155.5c0,0,18.1-94.1,109.9-112.2c75.5-14.9,115.4,3.2,130.3,20.4c0,0-67.4-80.1-131.4-55.6
		c-64,24.7-111.1,69.4-109.9,98.2C304.7,155.5,304,155.5,304,155.5"/>
	<path class="st7" d="M551.7,74.3c0,0-31-1.1-32.1,26.7c0,0,0,4.3,2,8.6c0,0,24.7-27.8,39.6-12.9"/>
	<path class="st7" d="M416.2,112.5c0,0-5.4-42.5-41.6-17.9c-23.5,16.1-21.3,38.5-17.2,42.8c4.3,4.3,3.2,12.9,6.3,7
		c3.2-5.9,2.3-25.1,14-30.5C389.3,108.5,408.7,102.6,416.2,112.5"/>
	<path class="st8" d="M315.7,401.2l-100.4,44.8c0,0,41.6,165.6,20.4,216.9l-14.9-5.4l-1.1-63.1l-27.8-119.4l-11.8-33l104.7-70.6
		L315.7,401.2"/>
	<path class="st8" d="M325.9,492.8l14.3,17.4v64h-17c0,0-2-44.8-2-50.2c0-5.4,2-24.7,2-24.7"/>
	<path class="st8" d="M326.4,583.9l-48.2,2l13.8,9.7l34.2,5.4"/>
	<path class="st4" d="M490.8,573.3l39.6-1.1l9.7,98.2l-40.5,5.4L490.8,573.3"/>
	<path class="st4" d="M501.4,573.3l59.7-3.2c0,0,24.7-62,24.7-65.1c0-3.2,21.3-89.8,21.3-89.8L558.9,365l-9.7-8.6l-25.6,25.6v99.3
		L501.4,573.3"/>
	<path class="st8" d="M528.1,565.8l-37.3,7.5l5.4,29.9c13.8,6.3,37.3-10.6,37.3-10.6"/>
	<path class="st8" d="M529.3,378.8l74.9,55.6l2-25.6l-56.5-52.3L529.3,378.8"/>
	<path class="st9" d="M363.5,783.7l-22.2-89.8l-11.1-66.3l-1.8-49.1l100.2-5.4h62.2l-5.7,112.2l9.7,86.6l-1.1,16.1l-81.2,6.3
		L363.5,783.7"/>
	<path class="st6" d="M477,572.2c0,0-5.4,111.1,10.6,190.2c0,0-32.1,20.4-78.9,25.6l89.8-3.2l10.6-6.3l-12.9-175.1l-3.4-37.5"/>
	<path class="st9" d="M541.7,662l41.6-11.8l78.9-4.3l11.8-36.4l-21.3-63.1l-24.7-3.2L594,553.8l-32.6,16.1l-17.4-3.2l-13.6,5.4"/>
	<path class="st6" d="M541,640.5c0,0,27.8-12.9,32.1-11.8l-11.8-58.8l13.8-5.4c0,0,9.7,55.6,9.7,62c0,0,59.7,3.2,65.1,3.2
		c0,0,12.9-24.7,9.7-50.2l11.8,34.2l1.1,19.2l-17.2,25.6l-19.2,4.3l-32.1-1.1l-10.6-13.8l-37.3,5.4l-11.8,4.3"/>
	<path class="st9" d="M499,564.7L475.4,505l-24.7-35.3c0,0,5.4-14.9,12.9-14.9h24.7l23.5,8.6l-2,39.6L499,564.7"/>
	<path class="st6" d="M503.7,544.3c0,0-29.9-57.7-29.9-66.3c0,0,5.4-12.9,12.9-9.7c7.5,3.2,23.5,11.8,23.5,11.8v-20.4l-36.4-7.5
		l-24.7,3.2l41.6,98.6l8.6,1.1"/>
	<path class="st9" d="M373,403.4l-29.6-3.2l-27.8-8.6v9.7l13.6,14.9l42.8,19.2"/>
	<path class="st6" d="M325.2,406.6c0,0,33,13.8,43.9,10.6l1.1,12.9l-29.9-6.3l-18.1-12.9L325.2,406.6"/>
	<path class="st0" d="M541.7,458.4c-18.1-0.5-34.6-2.7-48.9-6.8c0.9-5.9-0.9-11.5,0.7-15.8c4.1-2.9,10.6-2.9,16.7-3.6
		c-5.2-2.5-12.7-3.6-18.5-2c-0.2-4.1-2-6.6-3.2-9.7c10.2-3.6,34.2-27.4,47.7-19.7c6.6,3.8,9.3,25.1,9.7,35.7
		C546.5,445,545.1,453.6,541.7,458.4"/>
	<path class="st10" d="M541.7,458.4c-18.1-0.5-34.6-2.7-48.9-6.8c0.9-5.9-0.9-11.5,0.7-15.8c4.1-2.9,10.6-2.9,16.7-3.6
		c-5.2-2.5-12.7-3.6-18.5-2c-0.2-4.1-2-6.6-3.2-9.7c10.2-3.6,34.2-27.4,47.7-19.7c6.6,3.8,9.3,25.1,9.7,35.7
		C546.5,445,545.1,453.6,541.7,458.4L541.7,458.4z"/>
	<path class="st0" d="M455.1,428.8c0,1.4,0,2.7-0.2,4.1c-5.7,3.6-14.7,3.6-21,6.8c9,0.5,16.3,2.7,22.6,5.7c-0.2,3.4-0.2,7-0.5,10.4
		c-10.4,7-19.9,17.6-32.1,24.4c-5.9,3.2-26,11.3-32.1,9.7c-3.4-0.9-3.8-5.2-5.2-9.3c-2.9-8.6-9.7-22.6-10.4-35.7
		c-0.7-16.5-2.5-44.3,15.4-40.9c14.5,2.7,31.2,9.3,42.3,15.4C440.8,423.3,444.7,427.9,455.1,428.8"/>
	<path class="st10" d="M455.1,428.8c0,1.4,0,2.7-0.2,4.1c-5.7,3.6-14.7,3.6-21,6.8c9,0.5,16.3,2.7,22.6,5.7c-0.2,3.4-0.2,7-0.5,10.4
		c-10.4,7-19.9,17.6-32.1,24.4c-5.9,3.2-26,11.3-32.1,9.7c-3.4-0.9-3.8-5.2-5.2-9.3c-2.9-8.6-9.7-22.6-10.4-35.7
		c-0.7-16.5-2.5-44.3,15.4-40.9c14.5,2.7,31.2,9.3,42.3,15.4C440.8,423.3,444.7,427.9,455.1,428.8L455.1,428.8z"/>
	<path class="st0" d="M465.3,448.4c-1.6-9-3.4-11.5-2.7-19.5C486.7,412.9,491,456.6,465.3,448.4"/>
	<path class="st10" d="M465.3,448.4c-1.6-9-3.4-11.5-2.7-19.5C486.7,412.9,491,456.6,465.3,448.4L465.3,448.4z"/>
	<path class="st1" d="M500.1,455.7c0,0-7.5-10.6-2-13.8c5.4-3.2,10.6,0,13.8-5.4c3.2-5.4,0-8.6,1.1-14.9s6.3-7.5,11.8-8.6
		c5.4-1.1,20.4-3.2,22.4,2l-6.3-19.2l-12.9-4.3L487.4,415l-2,11.8v23.5"/>
	<path class="st1" d="M387.9,491c-1.4-16.7-2.7-33.3-4.1-50c-2.3-24.9,5.9-20.6,27.6-20.6c3.4,0,20.4,3.8,21.5,6.3
		c5.9,12-9.7,9.3,6.8,18.3c13.8,7.5,38.5-4.5,32.8-21.5c-3.2-3.8-16.3-1.1-21-3.6c-8.4-4.3-16.7-8.6-25.1-12.9
		c-10.6-5.4-35.1-13.6-46.4-5.9c-28.7,19.5,1.8,68.3,12,88.7"/>
	<path class="st2" d="M416.2,112.5c-29.2-6.8-43.7,12.2-52.5,31.9c-7.9-1.8-4.8-12.7-2.7-18.1c5.2-14.3,26.2-33.5,43.4-30.8
		C411.6,96.5,421.6,103.3,416.2,112.5"/>
	<path class="st2" d="M558,145.6h1.4c6.6,13.6,12.2,28,20.6,40.3c-5.7,13.1-42.1,24.4-41.6,1.4c7.9-3.4,21.5-0.7,28.5-5.2
		C562.7,170.9,557.1,161.4,558,145.6"/>
	<path class="st2" d="M430.9,146c6.3,11.5,8.4,23.5,17.2,32.1c4.1,3.8,11.8,8.6,7.9,19.5c-0.9,2.5-7.5,8.1-11.3,9.3
		c-13.8,4.1-46.1,0.9-35.3-16.5c11.5,0.5,26.9,7.5,35.5-0.9C438.3,179,426.6,158.2,430.9,146"/>
	<path class="st2" d="M552.8,262.3c-20.8,13.3-44.1,28-78.5,24.7c-7.2-6.3-10.2-20.6-2.9-29.9c3.6,6.3,1.4,18.1,11.8,19.9
		c19.5,3.4,42.1-12,56.1-17.2c8.6-14.7-0.7-19.9-8.6-29.4c-16.1-19.2-37.3-43.2-36.6-71.9c6.6-4.8,7,7.2,7.9,9.3
		c8.4,19.5,29.4,44.6,44.6,61.3c3.8,4.1,10,8.1,10.6,10.9C559.1,247.6,551.9,257.1,552.8,262.3"/>
	<path class="st2" d="M277.3,248.3c-6.6-3.8-8.1-20.1-15.8-20.6c-11.1-0.7-9,21.3-9,34.2c-7.5-6.8-8.8-28-3.4-38.9
		c-6.3-3.2-9,3.4-12.7,5.7C241.1,195.8,284.5,213.4,277.3,248.3"/>
	<path class="st2" d="M565.9,276.1c-9.7,18.5-23.5,38.9-52,39.6c-0.7-5.9-1.1-15.2,0-18.8C535.8,294.6,549.4,283.5,565.9,276.1"/>
	<path class="st2" d="M429.3,288.1c18.1,9.5,51.6,10.6,76.5,10c1.4,5.4,1.4,12.2,1.4,18.8C475.2,318.1,437.7,310.2,429.3,288.1"/>
	<path class="st2" d="M425.9,305.7c12.7,31.7,55.9,28,92.3,27.1c-1.6,4.1-5,9-9.5,10.6c-11.8,4.8-43.9,8.4-60.2-0.2
		c-10.2-5.4-17-17.9-22.6-25.1C423.4,314.8,409.8,305.9,425.9,305.7"/>
	<path class="st11" d="M551.2,480.1c-14.7,25.3-29,51.3-46.4,73.5c7.2-21.5,10.4-57.7,11.5-85.3
		C531.8,461.1,544.9,469.9,551.2,480.1"/>
	<path class="st2" d="M630.6,571c-16.5,3.4-28,19.5-44.3,18.3C595.3,576.9,610.7,571.5,630.6,571"/>
	<path class="st2" d="M637.8,596.8c-13.6,1.4-29.4,3.6-43,2.5C601.4,589.4,626.3,593,637.8,596.8"/>
	<path class="st2" d="M642.6,619.2c-15.2,0.2-33.9,0-48.4-1.1C602.8,608.8,632.9,614.7,642.6,619.2"/>
	<path class="st6" d="M522.7,680.3c2.3,19,9.7,38.2,8.8,59c-8.4,2.7-13.1,5.2-24.4,5.2c-0.7-17.6-3.2-44.8-2.5-61.8
		C510,683.2,518.2,678.9,522.7,680.3"/>
	<path class="st3" d="M498.3,399.8c-7.7,5-14,11.1-21.5,16.5c-16.3,0.9-25.1-1.1-36.9-10.4c0.2-0.7,1.4-0.5,1.4-1.4
		C458.7,412.2,480.9,401.4,498.3,399.8"/>
	<path class="st11" d="M407.3,518.1c4.8-20.6,23.5-31.4,40.5-42.8c17.4,22.2,28,50.7,39.8,78.3C459.8,545.2,431.5,531.9,407.3,518.1
		"/>
	<path class="st2" d="M504.6,683c-0.7,17,1.6,43.9,2.5,61.8c11.3,0,16.1-2.5,24.4-5.2c0.9-20.8-6.6-40-8.8-59
		C518.2,678.9,510,683.2,504.6,683L504.6,683z M330,587.1c7.5,68.1,18.1,125.1,37.8,185.5c43.7,13.3,96.1,14.5,134.8,2.5
		c-7-33.9-4.1-75.3-8.1-111.7c-3.2-27.4-1.6-54.7-5.9-82.6C441.7,571,375.7,578.5,330,587.1L330,587.1z M499.6,581.2
		c-0.5,29.2,1.4,58.1,3.6,87.3c11.3-1.6,18.8-2.7,29.2-5.2c-3.4-28-2.9-59.9-10-84.8C514.6,578.7,507.6,578.5,499.6,581.2
		L499.6,581.2z M556.4,576.5c-5.4-1.1-11.5,0-16.5,0c2.5,23.8,8.1,50,10.2,75.1c7.9,0.2,12.2-3.6,18.8-4.8
		C569.3,624.9,567,594.6,556.4,576.5L556.4,576.5L556.4,576.5z M642.6,655.2c16.7-4.1,27.1-24.4,22.4-45.5
		c-3.2-14-8.6-40.7-14.7-49.8c-4.3-6.6-16.3-15.4-26-9.3c-15.6,10-43,12.9-54.3,24.9c5.7,19,7.5,44.8,9.7,68.8
		c19.5,1.1,43.2-5.4,59.5,1.6c-11.3,3.6-25.8,3.6-35.5,9C611.8,658.8,630.4,658.1,642.6,655.2L642.6,655.2L642.6,655.2z
		 M487.4,553.6c-11.8-27.6-22.4-56.1-39.8-78.3c-17,11.3-35.5,22.2-40.5,42.8C431.5,531.9,459.8,545.2,487.4,553.6L487.4,553.6z
		 M516.4,468.3c-1.1,27.6-4.3,63.8-11.5,85.3c17.4-22.4,31.7-48.2,46.4-73.5C544.9,469.9,531.8,461.1,516.4,468.3L516.4,468.3z
		 M483.6,456.8c-6.6-0.7-12.2,7.7-20.8,4.1c-2,2.3-3.8,4.5-5.9,6.8c19,23.1,27.8,55.6,42.5,82.6c7.9-26,7-54.3,8.8-82.6
		C497.4,468.1,491.3,457.5,483.6,456.8L483.6,456.8z M462.5,429c-0.7,7.9,1.1,10.4,2.7,19.5C491,456.6,486.7,412.9,462.5,429
		L462.5,429z M433.8,419.5c-11.1-6.1-27.8-12.7-42.3-15.4c-17.9-3.4-16.1,24.4-15.4,40.9c0.7,13.1,7.5,26.9,10.4,35.7
		c1.4,4.1,1.8,8.4,5.2,9.3c6.1,1.4,26.5-6.6,32.1-9.7c12.2-6.6,21.7-17.2,32.1-24.4c0.2-3.4,0.2-7,0.5-10.4
		c-6.3-3.2-13.3-5.2-22.6-5.7c6.1-3.2,15.4-3.2,21-6.8c0-1.4,0-2.7,0.2-4.1C444.7,427.9,440.8,423.3,433.8,419.5L433.8,419.5z
		 M327.5,400.3c-9.3,9.5,26,22.2,37.1,22.8c0-5.9,3.4-11.5,2.7-15.8C354,405,336.5,406.6,327.5,400.3L327.5,400.3z M441.5,404.6
		c0,0.9-1.1,0.7-1.4,1.4c12,9.3,20.8,11.3,36.9,10.4c7.2-5.2,13.8-11.5,21.5-16.5C480.9,401.4,458.7,412.2,441.5,404.6L441.5,404.6z
		 M546,436.2c-0.5-10.4-3.2-31.9-9.7-35.7c-13.6-7.9-37.5,16.1-47.7,19.7c1.1,3.2,2.9,5.7,3.2,9.7c6.1-1.6,13.3-0.5,18.5,2
		c-6.1,0.7-12.7,0.7-16.7,3.6c-1.4,4.3,0.5,10-0.7,15.8c14.3,4.1,30.8,6.1,48.9,6.8C545.1,453.6,546.5,445,546,436.2L546,436.2z
		 M311.9,409.3c-2.9-2-22.6-27.6-25.3-26.5c-35.5,14-68.8,38.2-98.4,61.3c28.3,60.8,39.8,135.3,41.8,207
		c32.3,15.2,60.8,37.1,105,39.4c-5.2-36-9.7-68.3-12.7-102.2c-11.1-4.8-26.9,0.2-37.3-1.4c0-12.4,15.8-5.4,17.2-13.8
		c0.9-6.3-8.8-6.8-5.7-16.7c8.1,2.9,12.4,9.5,21,12c7.9-17.2,0-47.7,1.1-62.2c0.2-2.7,1.4-14.9,7.5-12.9c5.4,1.8-0.2,32.8,0.2,46.4
		c0.5,12.7-1.6,24.7,3.6,32.6c42.5-5.9,85.7-9.5,131.9-10.9c-10.2-4.3-22.2-8.4-35.3-15.8c-7.2-4.1-29.6-12.4-31.7-19.2
		c-3.4-10.9,8.6-16.5,10.6-25.8c-21.5,11.8-25.6-11.3-30.8-27.4c-4.5-14.7-7.2-25.8-8.4-34.2C347.6,429.4,327.7,420.6,311.9,409.3
		L311.9,409.3L311.9,409.3z M527.2,385.8c29.6-14.3,35.1,53.6,23.3,75.5c1.8,6.6,7.9,9,10.4,14.9c-16.5,29.6-34.8,57.2-51.8,86.4
		c12.4-7.9,30.5-1.4,45.2-7.2c5.4-2,9.3-14.5,13.3-24.4c11.3-27.1,23.1-61.5,28.3-87.3c1.1-5.9,4.5-18.8,3.6-24
		c-1.4-9.5-14-16.5-20.6-22.2c-12-10.9-19.5-20.1-32.1-30.3C542.2,374.7,531.3,379.7,527.2,385.8L527.2,385.8L527.2,385.8z
		 M244.3,123.2c-14,15.6-11.1,44.6-9.5,65.4c25.6-16.1,59.3,1.4,59,28.5c12.2-0.2,4.5-15.2,2.3-24.9c-7.2-31.4,12.2-65.4,0.9-94.1
		C275,99.9,257.2,108.7,244.3,123.2L244.3,123.2L244.3,123.2z M345.1,32.9c-31.9,9-72.8,32.3-86,61.1c10.2-1.6,17.2-6.6,27.1-7.2
		c3.8-0.2,8.8,1.6,13.1,0.5c8.6-2.3,16.1-21.7,22.6-29c6.3-7,14-10.2,19.2-16.5c3.4-1.6,8.4-1.6,8.6-6.6
		C348.5,33.6,347,32.5,345.1,32.9L345.1,32.9z M511.4,41.5C478.1,22.7,422,8.7,386.8,26.4c-28.5,14.3-67,37.8-80.1,67.4
		c12.2,28.7-3.6,55-4.8,84.1c-0.5,15.6,7.2,29,7.9,45.9c-4.3,7-17,7.7-25.8,7.2c-2.9-14.9-8.1-31.7-23.5-33.5
		c-21.7-2.5-37.8,15.6-38.7,34.4c-1.1,22.2,17,58.8,42.8,56.3c10-0.9,12.4-10.9,23.3-10.9c5.9,11.8-9,15.4-10.6,23.8
		c-0.5,2.3,1.1,10.6,2.3,14.7c4.8,19.2,15.2,44.3,25.3,59c13.1,18.8,38.7,21.5,66.3,23.3c5-10.6,23.1-9.7,34.8-7
		c-14.3-5.7-27.4-19.2-38.2-31.2c-12.4-13.8-25.1-28.5-25.8-46.6c23.8,32.8,43.2,61.5,86.2,76c32.6,10.9,70.6-5,95.7-22.6
		c10.4-7.2,16.5-19,24-29.4c27.6-39.8,40.5-96.4,37.8-151.3c-1.1-22.6-1.1-45.2-8.8-60.4c-7.9-15.8-34.8-30.3-50.7-15.8
		c-2.9-15.6,13.1-25.1,31.9-19.5C544.6,73,530.6,52.4,511.4,41.5L511.4,41.5L511.4,41.5z M573.4,552.9c26-12.9,74.4-34.6,90.5,0
		c6.1,12.9,13.1,34.4,16.1,47.7c4.3,18.5-4.8,57.9-24,64c-17,5.4-36.6,5.2-57,1.1c-2.5-2-5-5.4-7-9c-14.5-0.5-28.3,0.7-39.6,6.8
		c1.1,10.9-6.1,12.4-13.1,14.7c-5,20.1,10.2,46.4,6.6,64.5c-2.5,13.1-18.5,15.2-30.3,17.4c-0.5,7.2,0.5,13.3,1.4,19.5
		c-2.7,10-14.7,15.6-26.2,17c-37.8,4.5-95,6.6-131.2-6.6c-10.2-24.9-18.1-55-26.5-83.2c-35.3,3.8-64-15.2-90.9-27.8
		c-9.3-4.3-22.2-6.8-25.8-14.3c-3.4-7.2-2-21-2.9-33.9c-2-33.3-4.1-65.4-12.7-99.3c-3.8-15.4-10.9-28.7-15.6-43.4
		c-4.5-13.6-12.2-30.5-14.3-44.1c-2.9-20.1,16.1-21.3,28-30.1c18.8-13.6,33.5-21,53.8-33.3c6.1-3.6,24.2-12.7,26.2-17
		c4.1-8.4-7-20.1-10-26.7c-4.8-10.4-7.2-19.2-7.9-29.4c-17-2.7-30.1-12.9-37.8-24.2c-12.9-19-21.9-54.1-10.6-80.5
		c0.9-2,5.2-6.3,5.9-9.5c1.4-6.3-2.5-14.7-2.7-21.5c-1.1-34.6,5.9-64.5,29.2-74.9c9.5-37.8,43.4-50.2,75.3-69
		c12-7,25.1-11.5,38.7-16.5C407.6-6.4,482.4-3,522.9,27.5c17.2,12.9,44.6,40.3,54.3,60.2c26,52.3,24,139.8,5.9,203.6
		c-2.5,8.6-5.9,21-10.9,31.4c-3.4,7.2-14,21.5-12.9,27.8c1.4,6.6,24.4,24,29.4,28.7c8.8,8.6,25.8,19.9,27.1,30.8
		c1.6,11.5-5,27.4-8.4,38.5C596.7,485.5,585.8,519.7,573.4,552.9L573.4,552.9z"/>
	<path class="st7" d="M400.3,296c1.4-1.8,9-4.8,19.9,0.5c0,0-12.9,2-11.8,23.5l-5.4-1.1C403.3,319.1,397.6,299.6,400.3,296"/>
	<path class="st12" d="M494,479.7c0,3.2-2.7,5.9-5.9,5.9s-5.9-2.7-5.9-5.9c0-3.2,2.7-5.9,5.9-5.9C491.5,473.8,494,476.5,494,479.7"
		/>
	<path class="st12" d="M499.9,507c0,3.2-2.7,5.9-5.9,5.9s-5.9-2.7-5.9-5.9s2.7-5.9,5.9-5.9C497.4,501.1,499.9,503.6,499.9,507"/>
</g>
</svg>
