<?xml version="1.0" encoding="utf-8"?>
<!-- Generator: Adobe Illustrator 25.2.3, SVG Export Plug-In . SVG Version: 6.00 Build 0)  -->
<svg version="1.1" id="Layer_1" xmlns="http://www.w3.org/2000/svg" xmlns:xlink="http://www.w3.org/1999/xlink" x="0px" y="0px"
	 viewBox="0 0 512 512" style="enable-background:new 0 0 512 512;" xml:space="preserve">
<style type="text/css">
	.st0{fill:#F5F2F0;}
</style>
<path class="st0" d="M256,0C114.8,0,0,114.8,0,256s114.8,256,256,256s256-114.8,256-256S397.2,0,256,0z M376.9,353.9l-11.1,12.8
	C354,378.4,338.5,384,323.1,384C243.8,384,128,274.3,128,188.9c0-15.4,5.6-30.9,17.3-42.7l12.8-11.1c9.5-9.5,25-9.5,34.5,0
	l21.3,27.8c9.5,9.5,9.5,25,0,34.5l-18.2,22.8c19.2,47.9,51.8,79.1,96,96l22.8-18.2c9.5-9.5,25-9.5,34.5,0l27.8,21.3
	C386.4,328.9,386.4,344.3,376.9,353.9L376.9,353.9z"/>
</svg>
