<?xml version="1.0" encoding="utf-8"?>
<!-- Generator: Adobe Illustrator 25.2.3, SVG Export Plug-In . SVG Version: 6.00 Build 0)  -->
<svg version="1.1" id="Capa_1" xmlns="http://www.w3.org/2000/svg" xmlns:xlink="http://www.w3.org/1999/xlink" x="0px" y="0px"
	 viewBox="0 0 136 55" style="enable-background:new 0 0 136 55;" xml:space="preserve">
<style type="text/css">
	.st0{opacity:0.15;fill:#FFFFFF;enable-background:new    ;}
	.st1{fill:none;stroke:#FFFFFF;stroke-width:0.25;stroke-miterlimit:10;}
	.st2{fill:#FFFFFF;}
</style>
<g>
	<g>
		<rect x="3.3" y="2.9" class="st0" width="129.5" height="49.3"/>
		<rect x="3.3" y="2.9" class="st1" width="129.5" height="49.3"/>
		<g>
			<rect x="1.3" y="0.9" class="st2" width="3.9" height="3.9"/>
			<path class="st2" d="M4.8,1.3v3.2H1.7V1.3H4.8 M5.6,0.5H4.8H1.7H0.9v0.8v3.2v0.8h0.8h3.2h0.8V4.4V1.3V0.5L5.6,0.5z"/>
		</g>
		<g>
			<rect x="1.3" y="25.5" class="st2" width="3.9" height="3.9"/>
			<path class="st2" d="M4.8,25.9V29H1.7v-3.2H4.8 M5.6,25.1H4.8H1.7H0.9v0.8V29v0.8h0.8h3.2h0.8V29v-3.2V25.1L5.6,25.1z"/>
		</g>
		<g>
			<rect x="1.3" y="50.2" class="st2" width="3.9" height="3.9"/>
			<path class="st2" d="M4.8,50.6v3.2H1.7v-3.2H4.8 M5.6,49.8H4.8H1.7H0.9v0.8v3.2v0.8h0.8h3.2h0.8v-0.8v-3.2V49.8L5.6,49.8z"/>
		</g>
		<g>
			<rect x="66" y="0.9" class="st2" width="3.9" height="3.9"/>
			<path class="st2" d="M69.5,1.3v3.2h-3.1V1.3H69.5 M70.3,0.5h-0.8h-3.1h-0.8v0.8v3.2v0.8h0.8h3.1h0.8V4.4V1.3V0.5L70.3,0.5z"/>
		</g>
		<g>
			<rect x="66" y="50.2" class="st2" width="3.9" height="3.9"/>
			<path class="st2" d="M69.5,50.6v3.2h-3.1v-3.2H69.5 M70.3,49.8h-0.8h-3.1h-0.8v0.8v3.2v0.8h0.8h3.1h0.8v-0.8v-3.2V49.8L70.3,49.8
				z"/>
		</g>
		<g>
			<rect x="130.8" y="0.9" class="st2" width="3.9" height="3.9"/>
			<path class="st2" d="M134.3,1.3v3.2h-3.1V1.3H134.3 M135.1,0.5h-0.8h-3.1h-0.8v0.8v3.2v0.8h0.8h3.1h0.8V4.4V1.3V0.5L135.1,0.5z"
				/>
		</g>
		<g>
			<rect x="130.8" y="25.5" class="st2" width="3.9" height="3.9"/>
			<path class="st2" d="M134.3,25.9V29h-3.1v-3.2H134.3 M135.1,25.1h-0.8h-3.1h-0.8v0.8V29v0.8h0.8h3.1h0.8V29v-3.2V25.1L135.1,25.1
				z"/>
		</g>
		<g>
			<rect x="130.8" y="50.2" class="st2" width="3.9" height="3.9"/>
			<path class="st2" d="M134.3,50.6v3.2h-3.1v-3.2H134.3 M135.1,49.8h-0.8h-3.1h-0.8v0.8v3.2v0.8h0.8h3.1h0.8v-0.8v-3.2V49.8
				L135.1,49.8z"/>
		</g>
	</g>
	<g>
		<g>
			<path class="st2" d="M49.1,7.7h10.8c0.5,0,0.9,0.3,1.1,0.8l6.8,23.2c0.3,1.1,1.8,1.1,2.1,0l6.8-23.2c0.1-0.5,0.6-0.8,1.1-0.8
				h10.1c0.8,0,1.3,0.7,1.1,1.5L77,46.6c-0.1,0.5-0.6,0.8-1.1,0.8H61.1c-0.5,0-0.9-0.3-1.1-0.8L48.1,9.1C47.8,8.4,48.4,7.7,49.1,7.7
				z"/>
			<path class="st2" d="M123.8,47.8c-4,0-7-1.5-8.7-4c-0.4-0.6-1.3-0.6-1.8-0.1c-2.3,2.8-6.2,4.5-11,4.5c-9.3,0-13.7-5.3-13.7-12
				c0-7.2,5.1-11.3,14.6-12.8l9.6-1.6v-0.6c0-3-2-5-5.7-5c-3.3,0-5.4,2-5.5,4.7c0,0.1,0,0.2,0,0.3c0,0.6-0.5,1.1-1.1,1.1h-9.8
				c-0.6,0-1.1-0.5-1.1-1.1c0-0.2,0-0.3,0-0.4c0-8.2,7.1-14.3,17.8-14.3c11.6,0,17.9,6.4,17.9,14.5v13.9c0,1.4,0.8,2.4,2.4,2.4l0,0
				c0.6,0,1.2,0.5,1.2,1.1v7.9c0,0.5-0.4,1-0.9,1.1C126.8,47.7,125.2,47.8,123.8,47.8z M105.4,38.4c4.5,0,7.4-3,7.4-6.8v-0.2
				c0-0.7-0.6-1.2-1.3-1.1l-6.1,1.1c-2.8,0.5-4.2,1.9-4.2,3.7C101.2,37,102.9,38.4,105.4,38.4z"/>
		</g>
		<path class="st2" d="M12.2,7.1c4,0,7,1.5,8.7,4c0.4,0.6,1.3,0.6,1.8,0.1c2.3-2.8,6.2-4.5,11-4.5c9.3,0,13.7,5.3,13.7,12
			c0,7.2-5.1,11.3-14.6,12.8l-9.6,1.4v0.6c0,3,2,5,5.7,5c3.3,0,5.4-2,5.5-4.7c0-0.1,0-0.2,0-0.3c0-0.6,0.5-1.1,1.1-1.1h9.8
			c0.6,0,1.1,0.5,1.1,1.1c0,0.2,0,0.3,0,0.4c0,8.2-7.1,14.3-17.8,14.3c-11.5,0.1-17.8-6.3-17.8-14.4V19.9c0-1.4-0.8-2.4-2.4-2.4l0,0
			c-0.6,0-1.2-0.5-1.2-1.1V8.5c0-0.5,0.4-1,0.9-1.1C9.2,7.2,10.7,7.1,12.2,7.1z M30.6,16.5c-4.5,0-7.4,3-7.4,6.8v0.2
			c0,0.7,0.6,1.2,1.3,1.1l6.1-1.1c2.8-0.5,4.2-1.9,4.2-3.7C34.8,17.9,33,16.5,30.6,16.5z"/>
	</g>
</g>
</svg>
