<?xml version="1.0" encoding="utf-8"?>
<!-- Generator: Adobe Illustrator 25.2.3, SVG Export Plug-In . SVG Version: 6.00 Build 0)  -->
<svg version="1.1" id="Capa_1" xmlns="http://www.w3.org/2000/svg" xmlns:xlink="http://www.w3.org/1999/xlink" x="0px" y="0px"
	 viewBox="0 0 131.6 51.4" style="enable-background:new 0 0 131.6 51.4;" xml:space="preserve">
<style type="text/css">
	.st0{opacity:0.15;fill:#EA5153;}
	.st1{fill:none;stroke:#EA5153;stroke-width:0.439;stroke-miterlimit:10;}
	.st2{fill:#EA5153;}
	.st3{fill:none;stroke:#EA5153;stroke-width:0.1654;stroke-miterlimit:10;}
	.st4{opacity:0.3;}
	.st5{opacity:0.6;}
</style>
<g>
	<g>
		<rect x="1.1" y="1.1" class="st0" width="129.5" height="49.3"/>
		<rect x="1.1" y="1.1" class="st3" width="129.5" height="49.3"/>
		<rect class="st2" width="2.1" height="2.1"/>
		<rect y="24.6" class="st2" width="2.1" height="2.1"/>
		<rect y="49.3" class="st2" width="2.1" height="2.1"/>
		<rect x="64.7" class="st2" width="2.1" height="2.1"/>
		<rect x="64.7" y="49.3" class="st2" width="2.1" height="2.1"/>
		<rect x="129.5" class="st2" width="2.1" height="2.1"/>
		<rect x="129.5" y="24.6" class="st2" width="2.1" height="2.1"/>
		<rect x="129.5" y="49.3" class="st2" width="2.1" height="2.1"/>
	</g>
	<g>
		<g>
			<path class="st2" d="M46.9,5.9h10.8c0.5,0,0.9,0.3,1.1,0.8l6.8,23.2c0.3,1.1,1.8,1.1,2.1,0l6.8-23.2c0.1-0.5,0.6-0.8,1.1-0.8
				h10.1c0.8,0,1.3,0.7,1.1,1.5l-12,37.4c-0.1,0.5-0.6,0.8-1.1,0.8H58.9c-0.5,0-0.9-0.3-1.1-0.8L45.9,7.3
				C45.6,6.6,46.2,5.9,46.9,5.9z"/>
			<path class="st2" d="M121.6,46c-4,0-7-1.5-8.7-4c-0.4-0.6-1.3-0.6-1.8-0.1c-2.3,2.8-6.2,4.5-11,4.5c-9.3,0-13.7-5.3-13.7-12
				c0-7.2,5.1-11.3,14.6-12.8l9.6-1.6v-0.6c0-3-2-5-5.7-5c-3.3,0-5.4,2-5.5,4.7c0,0.1,0,0.2,0,0.3c0,0.6-0.5,1.1-1.1,1.1h-9.8
				c-0.6,0-1.1-0.5-1.1-1.1c0-0.2,0-0.3,0-0.4c0-8.2,7.1-14.3,17.8-14.3c11.6,0,17.9,6.4,17.9,14.5v13.9c0,1.4,0.8,2.4,2.4,2.4
				c0,0,0,0,0,0c0.6,0,1.2,0.5,1.2,1.1v7.9c0,0.5-0.4,1-0.9,1.1C124.6,45.9,123,46,121.6,46z M103.2,36.6c4.5,0,7.4-3,7.4-6.8v-0.2
				c0-0.7-0.6-1.2-1.3-1.1l-6.1,1.1c-2.8,0.5-4.2,1.9-4.2,3.7C99,35.2,100.7,36.6,103.2,36.6z"/>
		</g>
		<path class="st2" d="M10,5.3c4,0,7,1.5,8.7,4c0.4,0.6,1.3,0.6,1.8,0.1c2.3-2.8,6.2-4.5,11-4.5c9.3,0,13.7,5.3,13.7,12
			c0,7.2-5.1,11.3-14.6,12.8L21,31.1v0.6c0,3,2,5,5.7,5c3.3,0,5.4-2,5.5-4.7c0-0.1,0-0.2,0-0.3c0-0.6,0.5-1.1,1.1-1.1h9.8
			c0.6,0,1.1,0.5,1.1,1.1c0,0.2,0,0.3,0,0.4c0,8.2-7.1,14.3-17.8,14.3C14.9,46.5,8.6,40.1,8.6,32V18.1c0-1.4-0.8-2.4-2.4-2.4
			c0,0,0,0,0,0c-0.6,0-1.2-0.5-1.2-1.1V6.7c0-0.5,0.4-1,0.9-1.1C7,5.4,8.5,5.3,10,5.3z M28.4,14.7c-4.5,0-7.4,3-7.4,6.8v0.2
			c0,0.7,0.6,1.2,1.3,1.1l6.1-1.1c2.8-0.5,4.2-1.9,4.2-3.7C32.6,16.1,30.8,14.7,28.4,14.7z"/>
	</g>
</g>
</svg>
