<?xml version="1.0" encoding="utf-8"?>
<!-- Generator: Adobe Illustrator 25.2.3, SVG Export Plug-In . SVG Version: 6.00 Build 0)  -->
<svg version="1.1" id="Capa_1" xmlns="http://www.w3.org/2000/svg" xmlns:xlink="http://www.w3.org/1999/xlink" x="0px" y="0px"
	 viewBox="0 0 566.9 566.9" style="enable-background:new 0 0 566.9 566.9;" xml:space="preserve">
<g>
	<path d="M251,332.4c-17,30.7-47.7,50.7-82.2,50.7c-53.7,0-97.1-48.1-97.1-107.8s43.4-107.8,97.1-107.8
		c-11.5,2.1-33.2,39.6-33.2,85.2c0,57.1,31.5,103.1,70.3,103.1C222.5,355.9,239.1,346.9,251,332.4z M174.4,167.6
		c43.4,3,75.8,37.9,84.8,84.3h-49h-18.7h-2.6c6.4,0,11.9-5.1,11.9-11.5C200.8,206.4,189.3,174,174.4,167.6z"/>
	<path d="M495.2,408.7c0-30.2-26-54.5-54.5-54.5c-50.3,0-69.9,77.1-121.8,77.1c-30.2,0-54.5-25.6-54.5-57.5
		c0-25.6,15.8-47.3,37.9-54.5c-8.1,4.7-12.8,15.8-12.8,25.6c0,15.3,12.8,28.1,28.1,28.1c15.8,0,31.9-9.4,49-18.7
		c-47.3-6.4-83.9-45.6-83.9-92.9c0-50.3,40.9-91.2,92-93.7c-18.3,4.7-27.7,37.9-27.7,93.7c0,49.8,7.7,81.8,22.6,91.2
		c10.6-6,21.3-11.9,32.4-15.3c7.2-15.8,10.6-41.7,10.6-75.8c0-55.8-9.4-89-27.7-93.7c51.1,2.6,92,43.4,92,93.7
		c0,29.8-14.5,56.7-37.5,73.7C471.4,342.7,495.2,372.9,495.2,408.7z M410.9,472.6c0,6.8,4.7,11.5,12.8,11.5
		c-32.4,0-62.2-22.1-62.2-48.1c0-18.3,14.9-33.2,33.2-33.2c17.9,0,32.8,14.9,32.8,33.2c0,8.9-3.8,17.5-9.8,23.4
		C414.3,463.2,410.9,468.3,410.9,472.6z M388.7,116.1c0-18.3,14.9-33.2,33.2-33.2c17.9,0,32.8,14.9,32.8,33.2
		c0,15.3-9.4,24.3-22.1,31.1c-9.8,5.1-14.1,8.5-14.1,16.2c0,4.3,2.1,8.1,5.5,11.9C406.6,162.5,388.7,141.2,388.7,116.1z"/>
</g>
</svg>
