<?xml version="1.0" encoding="utf-8"?>
<!-- Generator: Adobe Illustrator 25.2.3, SVG Export Plug-In . SVG Version: 6.00 Build 0)  -->
<svg version="1.1" id="Capa_1" xmlns="http://www.w3.org/2000/svg" xmlns:xlink="http://www.w3.org/1999/xlink" x="0px" y="0px"
	 viewBox="0 0 501.6 107" style="enable-background:new 0 0 501.6 107;" xml:space="preserve">
<style type="text/css">
	.st0{fill:#CCE0A6;}
</style>
<g>
	<path d="M47.8,66.6c-4.5,8.2-12.7,13.5-21.9,13.5C11.6,80.1,0,67.3,0,51.4s11.6-28.7,25.9-28.7C22.8,23.2,17,33.2,17,45.3
		c0,15.2,8.4,27.5,18.7,27.5C40.2,72.8,44.7,70.4,47.8,66.6z M27.4,22.6C39,23.4,47.6,32.7,50,45.1H36.9h-5h-0.7
		c1.7,0,3.2-1.4,3.2-3.1C34.4,32.9,31.4,24.3,27.4,22.6z"/>
	<path d="M79.1,78.6L53.8,28.7c-1-2-3.4-4.8-5.6-5h2.4h9.8h5.3h1.9c2,0,3.4,0.9,4.1,2.3l16.1,33.7L79.1,78.6z M114.7,23.7
		c-6,0.8-12.6,7-15.3,12.5c0.6-1.1,0.8-2.4,0.8-3.8c0-4.9-3.9-8.7-8.7-8.7H114.7z"/>
	<path d="M160.4,77.3l-19.5,2.8c0,0-0.1,0-0.2,0c-1.1,0-2-0.9-2-2v-1V60.2v-6.8v-7.6v-0.6C135,47,127.1,50,126.4,60.6
		c-0.5,5.5,1,9.7,3.4,12.3c2.4,2.6,6.2,3.8,8.6,2.6c-2.7,1.9-7.4,4.7-13.5,4.7c-7.2,0-13.5-4.1-15.2-10.5c-1.8-6.5,1.8-13.2,8.1-17
		c9.8-6.1,35.9-10,36.5-18.9c0.1-1.8-0.8-4-2.3-5.7c2,1.9,3.3,4.2,3.7,6.8c0.1,0.6,0.1,1.2,0.1,1.8v1.9v16.5v4v10.7V71
		C155.8,73.7,157.8,76.8,160.4,77.3z M112.7,38.9c0-7.6,10.1-14.9,19.1-15.9c-4.1,0.6-6.4,2.6-6.4,5c0,1.6,1,3.3,2.4,4.9
		c1.6,1.5,2.5,3.6,2.5,6c0,4.9-4,8.7-8.9,8.7C116.6,47.6,112.7,43.7,112.7,38.9z"/>
	<path d="M244.2,86.9c0-8.1-6.9-14.5-14.5-14.5c-13.4,0-18.6,20.6-32.5,20.6c-8.1,0-14.5-6.8-14.5-15.3c0-6.8,4.2-12.6,10.1-14.5
		c-2.2,1.2-3.4,4.2-3.4,6.8c0,4.1,3.4,7.5,7.5,7.5c4.2,0,8.5-2.5,13.1-5c-12.6-1.7-22.4-12.2-22.4-24.8c0-13.4,10.9-24.3,24.5-25
		c-4.9,1.3-7.4,10.1-7.4,25c0,13.3,2,21.8,6,24.3c2.8-1.6,5.7-3.2,8.6-4.1c1.9-4.2,2.8-11.1,2.8-20.2c0-14.9-2.5-23.7-7.4-25
		c13.6,0.7,24.5,11.6,24.5,25c0,8-3.9,15.1-10,19.7C237.8,69.3,244.2,77.4,244.2,86.9z M221.7,104c0,1.8,1.3,3.1,3.4,3.1
		c-8.6,0-16.6-5.9-16.6-12.8c0-4.9,4-8.9,8.9-8.9c4.8,0,8.7,4,8.7,8.9c0,2.4-1,4.7-2.6,6.2C222.6,101.5,221.7,102.8,221.7,104z
		 M215.8,8.9c0-4.9,4-8.9,8.9-8.9c4.8,0,8.7,4,8.7,8.9c0,4.1-2.5,6.5-5.9,8.3c-2.6,1.4-3.8,2.3-3.8,4.3c0,1.1,0.6,2.2,1.5,3.2
		C220.5,21.2,215.8,15.6,215.8,8.9z"/>
	<path d="M297.1,77.3l-19.5,2.8c0,0-0.1,0-0.2,0c-1.1,0-2-0.9-2-2v-1V60.2v-6.8v-7.6v-0.6C271.7,47,263.8,50,263,60.6
		c-0.5,5.5,1,9.7,3.4,12.3c2.4,2.6,6.2,3.8,8.6,2.6c-2.7,1.9-7.4,4.7-13.5,4.7c-7.2,0-13.5-4.1-15.2-10.5c-1.8-6.5,1.8-13.2,8.1-17
		c9.8-6.1,35.9-10,36.5-18.9c0.1-1.8-0.8-4-2.3-5.7c2,1.9,3.3,4.2,3.7,6.8c0.1,0.6,0.1,1.2,0.1,1.8v1.9v16.5v4v10.7V71
		C292.4,73.7,294.5,76.8,297.1,77.3z M249.4,38.9c0-7.6,10.1-14.9,19.1-15.9c-4.1,0.6-6.4,2.6-6.4,5c0,1.6,1,3.3,2.4,4.9
		c1.6,1.5,2.5,3.6,2.5,6c0,4.9-4,8.7-8.9,8.7C253.3,47.6,249.4,43.7,249.4,38.9z"/>
	<path d="M323,46.4v19.3v7.6c0,2.7,2,5.8,4.7,6.2h-26.4c2.6-0.5,4.7-3.5,4.7-6.2v-7.6V46.4v-5.8v-6.5v-1.3c0-2.8-2-5.8-4.7-6.2
		l19.4-2.8c0.1,0,0.2,0,0.3,0c1.1,0,1.9,0.8,1.9,1.9v14.4V46.4z M357.6,79.5h-7h-19.3c2.6-0.5,4.7-3.5,4.7-6.2v-3.2V39.8
		c0-5.8,5.9-7.3,5.9-11.5c0-2.5-3.2-4.8-7.7-4.8c-4.8,0-9,1.7-10.5,2.4c10.6-5.1,29.3-6.6,29.3,12.3v31.9v3.2
		C352.9,76,355,79.1,357.6,79.5z"/>
	<path d="M386.9,22.6c3,0.3,5.5,1,7.6,2.2c-1-0.5-2-0.7-3.2-0.7c-7.5,0-13.6,12-13.6,26s6.1,26.4,13.6,26.4c1.1,0,2.2-0.3,3.2-0.8
		c-4.1,3.2-9,4.9-14,4.3c-12.4-1.3-21.2-15.1-19.5-30.9C362.6,33.2,374.5,21.4,386.9,22.6z M416.8,77.3l-19.4,2.8
		c-0.1,0-0.2,0-0.3,0c-1,0-1.9-0.9-1.9-2v-1V60.2V43.5V9.1c0-2.7-2-5.8-4.7-6.2L409.8,0c0.1,0,0.2,0,0.3,0c1.1,0,1.9,0.9,1.9,2v42.7
		v14.3v10.7V71C412.1,73.7,414.1,76.8,416.8,77.3z"/>
	<path d="M447.3,79.5h-7H421c2.6-0.5,4.7-3.5,4.7-6.2v-3.2V40.6v-6.5v-1.3c0-2.8-2-5.8-4.7-6.2l19.4-2.8c0.1,0,0.2,0,0.3,0
		c1.1,0,1.9,0.8,1.9,1.9v14.4v30v3.2C442.7,76,444.7,79.1,447.3,79.5z M425.4,8.9c0-4.9,3.9-8.9,8.7-8.9s8.9,4,8.9,8.9
		c0,4.8-4,8.7-8.9,8.7S425.4,13.6,425.4,8.9z"/>
	<path d="M501.6,77.3L482,80.1c0,0-0.1,0-0.2,0c-1.1,0-2-0.9-2-2v-1V60.2v-6.8v-7.6v-0.6c-3.6,1.8-11.5,4.8-12.3,15.3
		c-0.5,5.5,1,9.7,3.4,12.3c2.4,2.6,6.2,3.8,8.6,2.6c-2.7,1.9-7.4,4.7-13.5,4.7c-7.2,0-13.5-4.1-15.2-10.5c-1.8-6.5,1.8-13.2,8.1-17
		c9.8-6.1,35.9-10,36.5-18.9c0.1-1.8-0.8-4-2.3-5.7c2,1.9,3.3,4.2,3.7,6.8c0.1,0.6,0.1,1.2,0.1,1.8v1.9v16.5v4v10.7V71
		C496.9,73.7,499,76.8,501.6,77.3z M453.8,38.9c0-7.6,10.1-14.9,19.1-15.9c-4.1,0.6-6.4,2.6-6.4,5c0,1.6,1,3.3,2.4,4.9
		c1.6,1.5,2.5,3.6,2.5,6c0,4.9-4,8.7-8.9,8.7S453.8,43.7,453.8,38.9z"/>
</g>
</svg>
